<svg width="24" height="24" viewBox="0 0 24 24" fill="none" xmlns="http://www.w3.org/2000/svg">
<path d="M16 8.5C16 10.9853 13.9853 13 11.5 13C9.01472 13 7 10.9853 7 8.5C7 6.01472 9.01472 4 11.5 4C13.9853 4 16 6.01472 16 8.5Z" fill="white"/>
<path d="M16 8.5C16 10.9853 13.9853 13 11.5 13C9.01472 13 7 10.9853 7 8.5C7 6.01472 9.01472 4 11.5 4C13.9853 4 16 6.01472 16 8.5Z" stroke="black"/>
<path d="M14.682 5.31798C13.8685 4.50405 12.7416 3.99981 11.4998 4C10.2582 3.99981 9.13131 4.50405 8.31797 5.31798C7.50405 6.13132 6.99961 7.25822 7 8.50001C6.99961 9.7418 7.50405 10.8687 8.31797 11.682C9.13131 12.4959 10.2582 13.0002 11.4998 13C12.7416 13.0002 13.8685 12.4959 14.682 11.682C15.4958 10.8687 16 9.7418 16 8.50001C16 7.25822 15.4958 6.13132 14.682 5.31798ZM14.2569 11.2571C13.5504 11.9632 12.5775 12.3989 11.4998 12.3991C10.4221 12.3988 9.44939 11.9632 8.74271 11.2571C8.03664 10.5506 7.60096 9.57769 7.60077 8.50001C7.60096 7.42233 8.03664 6.44938 8.74271 5.7427C9.44939 5.03662 10.4221 4.60094 11.4998 4.60094C12.5775 4.60094 13.5504 5.03662 14.2569 5.7427C14.963 6.44938 15.3988 7.42231 15.399 8.50001C15.3988 9.57769 14.963 10.5506 14.2569 11.2571Z" fill="black"/>
<path d="M8.61209 8C8.60199 8.02797 8.59192 8.05574 8.58183 8.08336C8.68721 8.1186 8.79547 8.2128 8.83478 8.34713C8.87574 8.47894 8.83993 8.64412 8.72632 8.75016C8.61538 8.85876 8.45174 8.88705 8.32538 8.84572C8.19655 8.8054 8.10805 8.70274 8.07368 8.6021C8.04878 8.61057 8.02407 8.61923 8 8.62752C8.03189 8.75137 8.12409 8.89247 8.28875 8.9611C8.37024 8.99549 8.46655 9.00904 8.56537 8.99378C8.66375 8.97854 8.76295 8.93213 8.84074 8.85858C8.91896 8.78557 8.97124 8.68815 8.99059 8.58905C9.00994 8.48961 8.99862 8.39015 8.96424 8.30477C8.89467 8.13147 8.74277 8.03135 8.61209 8Z" fill="black"/>
<path d="M10.6265 8C10.6169 8.02752 10.6076 8.0552 10.5982 8.08271C10.702 8.11926 10.8068 8.21431 10.8447 8.3475C10.8841 8.47814 10.8502 8.64107 10.7406 8.74752C10.6331 8.85602 10.4718 8.88765 10.3424 8.84782C10.2111 8.80969 10.1167 8.70624 10.0799 8.60311C10.0531 8.61196 10.0266 8.62083 10 8.62969C10.0344 8.75623 10.1351 8.89874 10.3038 8.96501C10.3869 8.99807 10.4838 9.00899 10.5809 8.99222C10.6778 8.97545 10.7737 8.92722 10.8482 8.85367C10.9235 8.77979 10.9729 8.68443 10.9911 8.58652C11.0093 8.48892 10.9989 8.39022 10.9661 8.30639C10.8997 8.13493 10.7546 8.034 10.6265 8Z" fill="black"/>
<path d="M12.9667 8.308C12.9025 8.13915 12.7605 8.03637 12.6331 8C12.6244 8.02737 12.6159 8.05471 12.6073 8.08205C12.7107 8.12049 12.814 8.21628 12.8515 8.34783C12.8905 8.47748 12.8577 8.63795 12.7499 8.74451C12.6439 8.85344 12.4832 8.88775 12.3522 8.84918C12.2194 8.81233 12.1223 8.70846 12.0844 8.60364C12.0564 8.61281 12.0282 8.62182 12 8.63099C12.0356 8.76048 12.1396 8.90403 12.3103 8.9679C12.3945 8.99952 12.4917 9.00932 12.5882 8.99036C12.6846 8.97185 12.7791 8.92222 12.8524 8.84854C12.9257 8.77471 12.9738 8.67983 12.9914 8.58372C13.0092 8.48729 12.9987 8.39147 12.9667 8.308Z" fill="black"/>
<path d="M14.9691 8.30987C14.9094 8.14343 14.7739 8.03894 14.6473 8C14.6393 8.0271 14.6313 8.05418 14.6233 8.08145C14.7264 8.12176 14.8254 8.21828 14.8612 8.34816C14.8981 8.47669 14.8682 8.63401 14.7639 8.74085C14.6616 8.84991 14.5014 8.88765 14.3676 8.85039C14.2317 8.81551 14.1303 8.71053 14.0903 8.60401C14.0603 8.6135 14.0302 8.62298 14 8.63228C14.0372 8.76404 14.147 8.90966 14.3224 8.97112C14.4087 9.00161 14.5074 9.00904 14.6033 8.98821C14.6994 8.96789 14.7913 8.91676 14.861 8.84259C14.9309 8.76826 14.9755 8.67494 14.992 8.58062C15.0085 8.48631 14.9989 8.39199 14.9691 8.30987Z" fill="black"/>
<path d="M9.27321 6.972C9.35327 7.00206 9.44906 7.00925 9.54766 6.98704C9.6459 6.965 9.7459 6.9108 9.82561 6.83142C9.90532 6.75221 9.9609 6.65218 9.98469 6.55323C10.0086 6.45443 10.0036 6.35811 9.97595 6.27765C9.92037 6.11453 9.78471 6.02621 9.66164 6C9.6501 6.02605 9.63873 6.05245 9.62739 6.07868C9.72633 6.10875 9.82282 6.19426 9.852 6.32208C9.88295 6.44797 9.8396 6.61216 9.72284 6.726C9.60815 6.8421 9.44419 6.88248 9.31903 6.84803C9.19212 6.81498 9.10752 6.7148 9.07954 6.61355C9.05297 6.62421 9.02639 6.6347 9 6.64539C9.02392 6.77057 9.11061 6.91149 9.27321 6.972Z" fill="black"/>
<path d="M11.3055 6.96469C11.3905 6.99901 11.4895 7.00976 11.5879 6.99051C11.6864 6.97163 11.7827 6.92013 11.8564 6.84352C11.9303 6.76672 11.9774 6.6686 11.9932 6.57067C12.0091 6.47254 11.9964 6.376 11.9625 6.29418C11.8943 6.12792 11.7527 6.03313 11.628 6C11.6196 6.02548 11.6109 6.0508 11.6022 6.0768C11.7038 6.11215 11.8069 6.20263 11.8464 6.33248C11.8874 6.45991 11.8574 6.62353 11.749 6.73291C11.6429 6.8454 11.4788 6.88043 11.3474 6.83952C11.2139 6.80071 11.1187 6.69357 11.0832 6.58853C11.0555 6.59789 11.0277 6.60742 11 6.61678C11.0324 6.74715 11.1332 6.89623 11.3055 6.96469Z" fill="black"/>
<path d="M13.3393 6.95762C13.4276 6.99472 13.5279 7.00945 13.6243 6.99382C13.7212 6.97892 13.8126 6.93171 13.8798 6.85842C13.9475 6.78548 13.9875 6.69088 13.9973 6.59434C14.0073 6.49779 13.9893 6.40107 13.951 6.3166C13.8738 6.14604 13.7247 6.04062 13.595 6C13.5888 6.02555 13.5827 6.05092 13.5765 6.07684C13.6827 6.11819 13.793 6.21668 13.8405 6.34891C13.8895 6.47917 13.8702 6.6396 13.7703 6.74431C13.6727 6.85098 13.5116 6.87972 13.3754 6.83376C13.2372 6.78956 13.1308 6.67722 13.0856 6.56878C13.0571 6.57696 13.0287 6.58531 13 6.59364C13.0436 6.72726 13.1596 6.88254 13.3393 6.95762Z" fill="black"/>
<path d="M9.95353 10.3348C9.87565 10.1557 9.71916 10.0416 9.58537 10C9.57732 10.029 9.5693 10.058 9.56143 10.0867C9.67022 10.13 9.78381 10.2346 9.83063 10.3724C9.87922 10.5085 9.85438 10.6692 9.75098 10.7683C9.64985 10.8697 9.49071 10.8919 9.35834 10.8468C9.22436 10.8033 9.12202 10.6971 9.07718 10.5922C9.05143 10.5993 9.02572 10.6064 9 10.6134C9.04465 10.7417 9.15632 10.8864 9.33012 10.9572C9.41567 10.993 9.51303 11.0077 9.60914 10.9962C9.70488 10.9843 9.79743 10.9434 9.86816 10.8751C9.93852 10.8076 9.98283 10.7159 9.99569 10.6195C10.0085 10.5228 9.99211 10.4229 9.95353 10.3348Z" fill="black"/>
<path d="M11.989 10.5997C12.0092 10.5036 12.0008 10.4052 11.97 10.3194C11.9077 10.1452 11.7623 10.0369 11.6316 10C11.6222 10.0293 11.6129 10.0586 11.6035 10.0879C11.7092 10.1271 11.814 10.2276 11.8497 10.3622C11.8873 10.4955 11.8507 10.6562 11.7417 10.7589C11.6348 10.8645 11.4769 10.8951 11.3483 10.8577C11.2178 10.822 11.1211 10.7213 11.0817 10.6189C11.0545 10.6272 11.0273 10.6357 11 10.6442C11.038 10.7711 11.1424 10.908 11.3094 10.9686C11.3918 10.9991 11.4866 11.0085 11.5815 10.9918C11.6762 10.975 11.7699 10.9296 11.8441 10.8589C11.9186 10.7884 11.969 10.6953 11.989 10.5997Z" fill="black"/>
<path d="M13.6743 10C13.6641 10.0292 13.6538 10.0581 13.6435 10.0874C13.7439 10.122 13.8384 10.2158 13.865 10.3463C13.8937 10.4748 13.8492 10.6347 13.7355 10.7438C13.6236 10.8539 13.4633 10.8945 13.337 10.8635C13.2085 10.8343 13.1186 10.7389 13.0869 10.6379C13.0581 10.6477 13.029 10.6577 13 10.6676C13.0283 10.793 13.1228 10.925 13.2862 10.9775C13.3667 11.0034 13.4614 11.008 13.5572 10.9857C13.6531 10.9638 13.7492 10.9127 13.8265 10.8378C13.9038 10.7631 13.958 10.6682 13.9825 10.5728C14.0074 10.4769 14.0049 10.3813 13.9801 10.2986C13.9308 10.1316 13.7988 10.0319 13.6743 10Z" fill="black"/>
<path d="M10.5794 11C10.5719 11.0324 10.5645 11.0642 10.5573 11.0959C10.6695 11.1434 10.7857 11.2569 10.8333 11.3974C10.8827 11.5368 10.8583 11.6914 10.7594 11.7855C10.6623 11.8809 10.509 11.9063 10.3757 11.8714C10.2406 11.838 10.1308 11.7422 10.079 11.6369C10.0525 11.6451 10.0262 11.653 10 11.661C10.0534 11.7902 10.1767 11.9194 10.3513 11.9725C10.4375 11.9991 10.533 12.0073 10.6255 11.9931C10.7176 11.9784 10.8056 11.9406 10.8731 11.8783C10.9405 11.8169 10.9832 11.732 10.9958 11.6393C11.0083 11.5467 10.9926 11.4464 10.9541 11.3565C10.8771 11.1728 10.7178 11.0458 10.5794 11Z" fill="black"/>
<path d="M12.669 11C12.6577 11.0329 12.6465 11.0658 12.6354 11.098C12.7392 11.1376 12.8365 11.2454 12.8609 11.3855C12.8872 11.5244 12.8363 11.6855 12.7204 11.7825C12.6061 11.8822 12.4506 11.9082 12.3282 11.8765C12.2045 11.8461 12.1161 11.7576 12.0825 11.6585C12.0548 11.6672 12.0275 11.676 12 11.6845C12.0314 11.8052 12.1255 11.9236 12.2818 11.974C12.3593 11.9997 12.4497 12.0069 12.5429 11.9932C12.6357 11.9787 12.7311 11.9401 12.8104 11.8747C12.8897 11.8104 12.9484 11.7214 12.9772 11.6251C13.0061 11.5291 13.0068 11.4269 12.9833 11.3376C12.9365 11.1544 12.7984 11.0369 12.669 11Z" fill="black"/>
<path d="M10.2679 5.96807C10.3492 6.00244 10.4472 6.01039 10.5476 5.98541C10.6478 5.9604 10.7487 5.9003 10.8284 5.81493C10.9082 5.73008 10.9622 5.62545 10.9851 5.52646C11.0085 5.4275 11.0032 5.33448 10.9769 5.25853C10.924 5.10539 10.7972 5.02871 10.681 5C10.6697 5.02177 10.6583 5.04403 10.6469 5.06682C10.741 5.09749 10.8316 5.17518 10.859 5.29738C10.8876 5.41662 10.8455 5.58164 10.7286 5.70139C10.6137 5.82335 10.4469 5.86813 10.3201 5.82927C10.1911 5.79265 10.108 5.68085 10.0844 5.57249C10.0561 5.58336 10.0281 5.59377 10 5.6049C10.0178 5.73997 10.1027 5.89979 10.2679 5.96807Z" fill="black"/>
<path d="M12.3298 5.95534C12.4186 5.99511 12.5211 6.0109 12.6206 5.99212C12.7201 5.97383 12.8147 5.91977 12.8833 5.83767C12.9523 5.75581 12.9914 5.65166 12.9986 5.55052C13.0059 5.44887 12.9839 5.35123 12.9421 5.27138C12.8577 5.10915 12.7082 5.02804 12.5831 5C12.5773 5.02203 12.5712 5.04433 12.5653 5.0671C12.6682 5.09841 12.779 5.18026 12.8305 5.30744C12.8831 5.43213 12.8678 5.60087 12.7665 5.71552C12.668 5.83219 12.5026 5.86697 12.366 5.81917C12.2274 5.77388 12.1247 5.65621 12.0833 5.54879C12.0555 5.55782 12.0278 5.56708 12 5.57609C12.0386 5.70948 12.1488 5.8747 12.3298 5.95534Z" fill="black"/>
<path d="M21 7.5C21 9.98528 18.9853 12 16.5 12C14.0147 12 12 9.98528 12 7.5C12 5.01472 14.0147 3 16.5 3C18.9853 3 21 5.01472 21 7.5Z" fill="white"/>
<path d="M21 7.5C21 9.98528 18.9853 12 16.5 12C14.0147 12 12 9.98528 12 7.5C12 5.01472 14.0147 3 16.5 3C18.9853 3 21 5.01472 21 7.5Z" stroke="black"/>
<path d="M19.682 4.31798C18.8685 3.50405 17.7416 2.99981 16.4998 3C15.2582 2.99981 14.1313 3.50405 13.318 4.31798C12.5041 5.13132 11.9996 6.25822 12 7.50001C11.9996 8.7418 12.5041 9.8687 13.318 10.682C14.1313 11.4959 15.2582 12.0002 16.4998 12C17.7416 12.0002 18.8685 11.4959 19.682 10.682C20.4958 9.8687 21 8.7418 21 7.50001C21 6.25822 20.4958 5.13132 19.682 4.31798ZM19.2569 10.2571C18.5504 10.9632 17.5775 11.3989 16.4998 11.3991C15.4221 11.3988 14.4494 10.9632 13.7427 10.2571C13.0366 9.55064 12.601 8.57769 12.6008 7.50001C12.601 6.42233 13.0366 5.44938 13.7427 4.7427C14.4494 4.03662 15.4221 3.60094 16.4998 3.60094C17.5775 3.60094 18.5504 4.03662 19.2569 4.7427C19.963 5.44938 20.3988 6.42231 20.399 7.50001C20.3988 8.57769 19.963 9.55064 19.2569 10.2571Z" fill="black"/>
<path d="M13.6121 7C13.602 7.02797 13.5919 7.05574 13.5818 7.08336C13.6872 7.1186 13.7955 7.2128 13.8348 7.34713C13.8757 7.47894 13.8399 7.64412 13.7263 7.75016C13.6154 7.85876 13.4517 7.88705 13.3254 7.84572C13.1965 7.8054 13.1081 7.70274 13.0737 7.6021C13.0488 7.61057 13.0241 7.61923 13 7.62752C13.0319 7.75137 13.1241 7.89247 13.2887 7.9611C13.3702 7.99549 13.4666 8.00904 13.5654 7.99378C13.6637 7.97854 13.7629 7.93213 13.8407 7.85858C13.919 7.78557 13.9712 7.68815 13.9906 7.58905C14.0099 7.48961 13.9986 7.39015 13.9642 7.30477C13.8947 7.13147 13.7428 7.03135 13.6121 7Z" fill="black"/>
<path d="M15.6265 7C15.6169 7.02752 15.6076 7.0552 15.5982 7.08271C15.702 7.11926 15.8068 7.21431 15.8447 7.3475C15.8841 7.47814 15.8502 7.64107 15.7406 7.74752C15.6331 7.85602 15.4718 7.88765 15.3424 7.84782C15.2111 7.80969 15.1167 7.70624 15.0799 7.60311C15.0531 7.61196 15.0266 7.62083 15 7.62969C15.0344 7.75623 15.1351 7.89874 15.3038 7.96501C15.3869 7.99807 15.4838 8.00899 15.5809 7.99222C15.6778 7.97545 15.7737 7.92722 15.8482 7.85367C15.9235 7.77979 15.9729 7.68443 15.9911 7.58652C16.0093 7.48892 15.9989 7.39022 15.9661 7.30639C15.8997 7.13493 15.7546 7.034 15.6265 7Z" fill="black"/>
<path d="M17.9667 7.308C17.9025 7.13915 17.7605 7.03637 17.6331 7C17.6244 7.02737 17.6159 7.05471 17.6073 7.08205C17.7107 7.12049 17.814 7.21628 17.8515 7.34783C17.8905 7.47748 17.8577 7.63795 17.7499 7.74451C17.6439 7.85344 17.4832 7.88775 17.3522 7.84918C17.2194 7.81233 17.1223 7.70846 17.0844 7.60364C17.0564 7.61281 17.0282 7.62182 17 7.63099C17.0356 7.76048 17.1396 7.90403 17.3103 7.9679C17.3945 7.99952 17.4917 8.00932 17.5882 7.99036C17.6846 7.97185 17.7791 7.92222 17.8524 7.84854C17.9257 7.77471 17.9738 7.67983 17.9914 7.58372C18.0092 7.48729 17.9987 7.39147 17.9667 7.308Z" fill="black"/>
<path d="M19.9691 7.30987C19.9094 7.14343 19.7739 7.03894 19.6473 7C19.6393 7.0271 19.6313 7.05418 19.6233 7.08145C19.7264 7.12176 19.8254 7.21828 19.8612 7.34816C19.8981 7.47669 19.8682 7.63401 19.7639 7.74085C19.6616 7.84991 19.5014 7.88765 19.3676 7.85039C19.2317 7.81551 19.1303 7.71053 19.0903 7.60401C19.0603 7.6135 19.0302 7.62298 19 7.63228C19.0372 7.76404 19.147 7.90966 19.3224 7.97112C19.4087 8.00161 19.5074 8.00904 19.6033 7.98821C19.6994 7.96789 19.7913 7.91676 19.861 7.84259C19.9309 7.76826 19.9755 7.67494 19.992 7.58062C20.0085 7.48631 19.9989 7.39199 19.9691 7.30987Z" fill="black"/>
<path d="M14.2732 5.972C14.3533 6.00206 14.4491 6.00925 14.5477 5.98704C14.6459 5.965 14.7459 5.9108 14.8256 5.83142C14.9053 5.75221 14.9609 5.65218 14.9847 5.55323C15.0086 5.45443 15.0036 5.35811 14.9759 5.27765C14.9204 5.11453 14.7847 5.02621 14.6616 5C14.6501 5.02605 14.6387 5.05245 14.6274 5.07868C14.7263 5.10875 14.8228 5.19426 14.852 5.32208C14.883 5.44797 14.8396 5.61216 14.7228 5.726C14.6082 5.8421 14.4442 5.88248 14.319 5.84803C14.1921 5.81498 14.1075 5.7148 14.0795 5.61355C14.053 5.62421 14.0264 5.6347 14 5.64539C14.0239 5.77057 14.1106 5.91149 14.2732 5.972Z" fill="black"/>
<path d="M16.3055 5.96469C16.3905 5.99901 16.4895 6.00976 16.5879 5.99051C16.6864 5.97163 16.7827 5.92013 16.8564 5.84352C16.9303 5.76672 16.9774 5.6686 16.9932 5.57067C17.0091 5.47254 16.9964 5.376 16.9625 5.29418C16.8943 5.12792 16.7527 5.03313 16.628 5C16.6196 5.02548 16.6109 5.0508 16.6022 5.0768C16.7038 5.11215 16.8069 5.20263 16.8464 5.33248C16.8874 5.45991 16.8574 5.62353 16.749 5.73291C16.6429 5.8454 16.4788 5.88043 16.3474 5.83952C16.2139 5.80071 16.1187 5.69357 16.0832 5.58853C16.0555 5.59789 16.0277 5.60742 16 5.61678C16.0324 5.74715 16.1332 5.89623 16.3055 5.96469Z" fill="black"/>
<path d="M18.3393 5.95762C18.4276 5.99472 18.5279 6.00945 18.6243 5.99382C18.7212 5.97892 18.8126 5.93171 18.8798 5.85842C18.9475 5.78548 18.9875 5.69088 18.9973 5.59434C19.0073 5.49779 18.9893 5.40107 18.951 5.3166C18.8738 5.14604 18.7247 5.04062 18.595 5C18.5888 5.02555 18.5827 5.05092 18.5765 5.07684C18.6827 5.11819 18.793 5.21668 18.8405 5.34891C18.8895 5.47917 18.8702 5.6396 18.7703 5.74431C18.6727 5.85098 18.5116 5.87972 18.3754 5.83376C18.2372 5.78956 18.1308 5.67722 18.0856 5.56878C18.0571 5.57696 18.0287 5.58531 18 5.59364C18.0436 5.72726 18.1596 5.88254 18.3393 5.95762Z" fill="black"/>
<path d="M14.9535 9.33476C14.8756 9.15569 14.7192 9.04158 14.5854 9C14.5773 9.02901 14.5693 9.05804 14.5614 9.0867C14.6702 9.13003 14.7838 9.23462 14.8306 9.37244C14.8792 9.50852 14.8544 9.66916 14.751 9.76826C14.6499 9.86965 14.4907 9.89194 14.3583 9.84683C14.2244 9.8033 14.122 9.69713 14.0772 9.59221C14.0514 9.59929 14.0257 9.60636 14 9.61344C14.0446 9.74172 14.1563 9.88645 14.3301 9.95724C14.4157 9.99297 14.513 10.0077 14.6091 9.99615C14.7049 9.98431 14.7974 9.94343 14.8682 9.87513C14.9385 9.80755 14.9828 9.71589 14.9957 9.61946C15.0085 9.52285 14.9921 9.42287 14.9535 9.33476Z" fill="black"/>
<path d="M16.989 9.59967C17.0092 9.50364 17.0008 9.40519 16.97 9.31941C16.9077 9.14523 16.7623 9.03692 16.6316 9C16.6222 9.0293 16.6129 9.05858 16.6035 9.08788C16.7092 9.12705 16.814 9.22757 16.8497 9.36223C16.8873 9.49549 16.8507 9.65616 16.7417 9.75892C16.6348 9.86445 16.4769 9.89514 16.3483 9.85772C16.2178 9.82201 16.1211 9.72131 16.0817 9.61888C16.0545 9.6272 16.0273 9.6357 16 9.64418C16.038 9.77105 16.1424 9.90797 16.3094 9.96863C16.3918 9.99912 16.4866 10.0085 16.5815 9.99185C16.6762 9.97504 16.7699 9.92963 16.8441 9.85892C16.9186 9.78839 16.969 9.69533 16.989 9.59967Z" fill="black"/>
<path d="M18.6743 9C18.6641 9.02923 18.6538 9.05812 18.6435 9.08735C18.7439 9.12202 18.8384 9.21584 18.865 9.34627C18.8937 9.47476 18.8492 9.63475 18.7355 9.7438C18.6236 9.85393 18.4633 9.89453 18.337 9.86355C18.2085 9.83432 18.1186 9.7389 18.0869 9.6379C18.0581 9.64769 18.029 9.65768 18 9.66765C18.0283 9.793 18.1228 9.92499 18.2862 9.97752C18.3667 10.0034 18.4614 10.008 18.5572 9.98574C18.6531 9.96385 18.7492 9.91272 18.8265 9.83781C18.9038 9.76306 18.958 9.66818 18.9825 9.57277C19.0074 9.47685 19.0049 9.38128 18.9801 9.29864C18.9308 9.13164 18.7988 9.03186 18.6743 9Z" fill="black"/>
<path d="M15.5794 10C15.5719 10.0324 15.5645 10.0642 15.5573 10.0959C15.6695 10.1434 15.7857 10.2569 15.8333 10.3974C15.8827 10.5368 15.8583 10.6914 15.7594 10.7855C15.6623 10.8809 15.509 10.9063 15.3757 10.8714C15.2406 10.838 15.1308 10.7422 15.079 10.6369C15.0525 10.6451 15.0262 10.653 15 10.661C15.0534 10.7902 15.1767 10.9194 15.3513 10.9725C15.4375 10.9991 15.533 11.0073 15.6255 10.9931C15.7176 10.9784 15.8056 10.9406 15.8731 10.8783C15.9405 10.8169 15.9832 10.732 15.9958 10.6393C16.0083 10.5467 15.9926 10.4464 15.9541 10.3565C15.8771 10.1728 15.7178 10.0458 15.5794 10Z" fill="black"/>
<path d="M17.669 10C17.6577 10.0329 17.6465 10.0658 17.6354 10.098C17.7392 10.1376 17.8365 10.2454 17.8609 10.3855C17.8872 10.5244 17.8363 10.6855 17.7204 10.7825C17.6061 10.8822 17.4506 10.9082 17.3282 10.8765C17.2045 10.8461 17.1161 10.7576 17.0825 10.6585C17.0548 10.6672 17.0275 10.676 17 10.6845C17.0314 10.8052 17.1255 10.9236 17.2818 10.974C17.3593 10.9997 17.4497 11.0069 17.5429 10.9932C17.6357 10.9787 17.7311 10.9401 17.8104 10.8747C17.8897 10.8104 17.9484 10.7214 17.9772 10.6251C18.0061 10.5291 18.0068 10.4269 17.9833 10.3376C17.9365 10.1544 17.7984 10.0369 17.669 10Z" fill="black"/>
<path d="M15.2679 4.96807C15.3492 5.00244 15.4472 5.01039 15.5476 4.98541C15.6478 4.9604 15.7487 4.9003 15.8284 4.81493C15.9082 4.73008 15.9622 4.62545 15.9851 4.52646C16.0085 4.4275 16.0032 4.33448 15.9769 4.25853C15.924 4.10539 15.7972 4.02871 15.681 4C15.6697 4.02177 15.6583 4.04403 15.6469 4.06682C15.741 4.09749 15.8316 4.17518 15.859 4.29738C15.8876 4.41662 15.8455 4.58164 15.7286 4.70139C15.6137 4.82335 15.4469 4.86813 15.3201 4.82927C15.1911 4.79265 15.108 4.68085 15.0844 4.57249C15.0561 4.58336 15.0281 4.59377 15 4.6049C15.0178 4.73997 15.1027 4.89979 15.2679 4.96807Z" fill="black"/>
<path d="M17.3298 4.95534C17.4186 4.99511 17.5211 5.0109 17.6206 4.99212C17.7201 4.97383 17.8147 4.91977 17.8833 4.83767C17.9523 4.75581 17.9914 4.65166 17.9986 4.55052C18.0059 4.44887 17.9839 4.35123 17.9421 4.27138C17.8577 4.10915 17.7082 4.02804 17.5831 4C17.5773 4.02203 17.5712 4.04433 17.5653 4.0671C17.6682 4.09841 17.779 4.18026 17.8305 4.30744C17.8831 4.43213 17.8678 4.60087 17.7665 4.71552C17.668 4.83219 17.5026 4.86697 17.366 4.81917C17.2274 4.77388 17.1247 4.65621 17.0833 4.54879C17.0555 4.55782 17.0278 4.56708 17 4.57609C17.0386 4.70948 17.1488 4.8747 17.3298 4.95534Z" fill="black"/>
<path d="M8 22C8.55228 22 9 21.5523 9 21C9 20.4477 8.55228 20 8 20C7.44772 20 7 20.4477 7 21C7 21.5523 7.44772 22 8 22Z" stroke="black" stroke-width="2" stroke-linecap="round" stroke-linejoin="round"/>
<path d="M19 22C19.5523 22 20 21.5523 20 21C20 20.4477 19.5523 20 19 20C18.4477 20 18 20.4477 18 21C18 21.5523 18.4477 22 19 22Z" stroke="black" stroke-width="2" stroke-linecap="round" stroke-linejoin="round"/>
<path d="M2.04999 2.05H4.04999L6.70999 14.47C6.80757 14.9249 7.06066 15.3315 7.4257 15.6199C7.79074 15.9082 8.24489 16.0604 8.70999 16.05H18.49C18.9452 16.0493 19.3865 15.8933 19.741 15.6078C20.0956 15.3224 20.3421 14.9245 20.44 14.48L22.09 7.05H5.11999" fill="black"/>
<path d="M2.04999 2.05H4.04999L6.70999 14.47C6.80757 14.9249 7.06066 15.3315 7.4257 15.6199C7.79074 15.9082 8.24489 16.0604 8.70999 16.05H18.49C18.9452 16.0493 19.3865 15.8933 19.741 15.6078C20.0956 15.3224 20.3421 14.9245 20.44 14.48L22.09 7.05H5.11999" stroke="black" stroke-width="2" stroke-linecap="round" stroke-linejoin="round"/>
</svg>
